{
	"asset":{
		"generator":"Khronos glTF Blender I/O v3.6.28",
		"version":"2.0"
	},
	"scene":0,
	"scenes":[
		{
			"name":"Scene",
			"nodes":[
				0,
				1,
				2,
				3,
				4,
				5,
				6,
				7,
				8
			]
		}
	],
	"nodes":[
		{
			"mesh":0,
			"name":"Cube.004",
			"translation":[
				0,
				0.9000000357627869,
				0
			]
		},
		{
			"mesh":1,
			"name":"Plane.001",
			"translation":[
				-0.022159496322274208,
				-0.902100682258606,
				0
			]
		},
		{
			"mesh":2,
			"name":"Reja",
			"translation":[
				-0.022159496322274208,
				-0.902100682258606,
				0
			]
		},
		{
			"mesh":3,
			"name":"Suelo 1",
			"translation":[
				0.0005496558151207864,
				0,
				-0.014291051775217056
			]
		},
		{
			"mesh":4,
			"name":"Cube",
			"translation":[
				-4.763566017150879,
				5.0811357498168945,
				-4.939993858337402
			]
		},
		{
			"mesh":5,
			"name":"Cube.001",
			"translation":[
				4.904707908630371,
				5.0458502769470215,
				-4.939993858337402
			]
		},
		{
			"mesh":6,
			"name":"Cube.002",
			"translation":[
				-4.763566017150879,
				5.0811357498168945,
				7.762847900390625
			]
		},
		{
			"mesh":7,
			"name":"Cube.003",
			"translation":[
				4.904707908630371,
				5.0458502769470215,
				7.762847900390625
			]
		},
		{
			"mesh":8,
			"name":"Suelo 1.001",
			"translation":[
				0.0029524825513362885,
				0,
				-20.013368606567383
			]
		}
	],
	"meshes":[
		{
			"name":"Cube.008",
			"primitives":[
				{
					"attributes":{
						"POSITION":0,
						"NORMAL":1,
						"TEXCOORD_0":2,
						"TANGENT":3
					},
					"indices":4
				}
			]
		},
		{
			"name":"Plane.002",
			"primitives":[
				{
					"attributes":{
						"POSITION":5,
						"NORMAL":6,
						"TEXCOORD_0":7,
						"TANGENT":8
					},
					"indices":9
				}
			]
		},
		{
			"name":"Plane.003",
			"primitives":[
				{
					"attributes":{
						"POSITION":10,
						"NORMAL":11,
						"TEXCOORD_0":12,
						"TANGENT":13
					},
					"indices":14
				}
			]
		},
		{
			"name":"Cube.001",
			"primitives":[
				{
					"attributes":{
						"POSITION":15,
						"NORMAL":16,
						"TEXCOORD_0":17,
						"TANGENT":18
					},
					"indices":19
				}
			]
		},
		{
			"name":"Cube.002",
			"primitives":[
				{
					"attributes":{
						"POSITION":20,
						"NORMAL":21,
						"TEXCOORD_0":22,
						"TANGENT":23
					},
					"indices":24
				}
			]
		},
		{
			"name":"Cube.003",
			"primitives":[
				{
					"attributes":{
						"POSITION":25,
						"NORMAL":26,
						"TEXCOORD_0":27,
						"TANGENT":28
					},
					"indices":24
				}
			]
		},
		{
			"name":"Cube.004",
			"primitives":[
				{
					"attributes":{
						"POSITION":29,
						"NORMAL":30,
						"TEXCOORD_0":31,
						"TANGENT":32
					},
					"indices":24
				}
			]
		},
		{
			"name":"Cube.005",
			"primitives":[
				{
					"attributes":{
						"POSITION":33,
						"NORMAL":34,
						"TEXCOORD_0":35,
						"TANGENT":36
					},
					"indices":24
				}
			]
		},
		{
			"name":"Cube.006",
			"primitives":[
				{
					"attributes":{
						"POSITION":37,
						"NORMAL":38,
						"TEXCOORD_0":39,
						"TANGENT":40
					},
					"indices":19
				}
			]
		}
	],
	"accessors":[
		{
			"bufferView":0,
			"componentType":5126,
			"count":232,
			"max":[
				0.605863630771637,
				0.8999999761581421,
				0.2418142557144165
			],
			"min":[
				-0.605863630771637,
				-0.8999999761581421,
				-0.2418142557144165
			],
			"type":"VEC3"
		},
		{
			"bufferView":1,
			"componentType":5126,
			"count":232,
			"type":"VEC3"
		},
		{
			"bufferView":2,
			"componentType":5126,
			"count":232,
			"type":"VEC2"
		},
		{
			"bufferView":3,
			"componentType":5126,
			"count":232,
			"type":"VEC4"
		},
		{
			"bufferView":4,
			"componentType":5123,
			"count":540,
			"type":"SCALAR"
		},
		{
			"bufferView":5,
			"componentType":5126,
			"count":1200,
			"max":[
				1.1915473937988281,
				2.7010200023651123,
				4.371138828673793e-08
			],
			"min":[
				-0.9477797150611877,
				0.902108907699585,
				3.768223066913379e-08
			],
			"type":"VEC3"
		},
		{
			"bufferView":6,
			"componentType":5126,
			"count":1200,
			"type":"VEC3"
		},
		{
			"bufferView":7,
			"componentType":5126,
			"count":1200,
			"type":"VEC2"
		},
		{
			"bufferView":8,
			"componentType":5126,
			"count":1200,
			"type":"VEC4"
		},
		{
			"bufferView":9,
			"componentType":5123,
			"count":1800,
			"type":"SCALAR"
		},
		{
			"bufferView":10,
			"componentType":5126,
			"count":4214,
			"max":[
				1.249159574508667,
				3.4021005630493164,
				0.03267531096935272
			],
			"min":[
				-1.0378403663635254,
				0.7021006345748901,
				-0.5726752877235413
			],
			"type":"VEC3"
		},
		{
			"bufferView":11,
			"componentType":5126,
			"count":4214,
			"type":"VEC3"
		},
		{
			"bufferView":12,
			"componentType":5126,
			"count":4214,
			"type":"VEC2"
		},
		{
			"bufferView":13,
			"componentType":5126,
			"count":4214,
			"type":"VEC4"
		},
		{
			"bufferView":14,
			"componentType":5123,
			"count":6528,
			"type":"SCALAR"
		},
		{
			"bufferView":15,
			"componentType":5126,
			"count":667,
			"max":[
				10,
				-0.0005876421928405762,
				10
			],
			"min":[
				-10,
				-1.0021116733551025,
				-10
			],
			"type":"VEC3"
		},
		{
			"bufferView":16,
			"componentType":5126,
			"count":667,
			"type":"VEC3"
		},
		{
			"bufferView":17,
			"componentType":5126,
			"count":667,
			"type":"VEC2"
		},
		{
			"bufferView":18,
			"componentType":5126,
			"count":667,
			"type":"VEC4"
		},
		{
			"bufferView":19,
			"componentType":5123,
			"count":1716,
			"type":"SCALAR"
		},
		{
			"bufferView":20,
			"componentType":5126,
			"count":24,
			"max":[
				2.6711456775665283,
				5,
				5
			],
			"min":[
				-5,
				-5,
				-5
			],
			"type":"VEC3"
		},
		{
			"bufferView":21,
			"componentType":5126,
			"count":24,
			"type":"VEC3"
		},
		{
			"bufferView":22,
			"componentType":5126,
			"count":24,
			"type":"VEC2"
		},
		{
			"bufferView":23,
			"componentType":5126,
			"count":24,
			"type":"VEC4"
		},
		{
			"bufferView":24,
			"componentType":5123,
			"count":36,
			"type":"SCALAR"
		},
		{
			"bufferView":25,
			"componentType":5126,
			"count":24,
			"max":[
				5,
				5,
				5
			],
			"min":[
				-2.812288284301758,
				-5,
				-5
			],
			"type":"VEC3"
		},
		{
			"bufferView":26,
			"componentType":5126,
			"count":24,
			"type":"VEC3"
		},
		{
			"bufferView":27,
			"componentType":5126,
			"count":24,
			"type":"VEC2"
		},
		{
			"bufferView":28,
			"componentType":5126,
			"count":24,
			"type":"VEC4"
		},
		{
			"bufferView":29,
			"componentType":5126,
			"count":24,
			"max":[
				2.6711456775665283,
				5,
				2.1206893920898438
			],
			"min":[
				-5,
				-5,
				-5
			],
			"type":"VEC3"
		},
		{
			"bufferView":30,
			"componentType":5126,
			"count":24,
			"type":"VEC3"
		},
		{
			"bufferView":31,
			"componentType":5126,
			"count":24,
			"type":"VEC2"
		},
		{
			"bufferView":32,
			"componentType":5126,
			"count":24,
			"type":"VEC4"
		},
		{
			"bufferView":33,
			"componentType":5126,
			"count":24,
			"max":[
				5,
				5,
				2.1206893920898438
			],
			"min":[
				-2.812288284301758,
				-5,
				-5
			],
			"type":"VEC3"
		},
		{
			"bufferView":34,
			"componentType":5126,
			"count":24,
			"type":"VEC3"
		},
		{
			"bufferView":35,
			"componentType":5126,
			"count":24,
			"type":"VEC2"
		},
		{
			"bufferView":36,
			"componentType":5126,
			"count":24,
			"type":"VEC4"
		},
		{
			"bufferView":37,
			"componentType":5126,
			"count":667,
			"max":[
				10,
				-0.0005876421928405762,
				10
			],
			"min":[
				-10,
				-1.0021116733551025,
				-10
			],
			"type":"VEC3"
		},
		{
			"bufferView":38,
			"componentType":5126,
			"count":667,
			"type":"VEC3"
		},
		{
			"bufferView":39,
			"componentType":5126,
			"count":667,
			"type":"VEC2"
		},
		{
			"bufferView":40,
			"componentType":5126,
			"count":667,
			"type":"VEC4"
		}
	],
	"bufferViews":[
		{
			"buffer":0,
			"byteLength":2784,
			"byteOffset":0,
			"target":34962
		},
		{
			"buffer":0,
			"byteLength":2784,
			"byteOffset":2784,
			"target":34962
		},
		{
			"buffer":0,
			"byteLength":1856,
			"byteOffset":5568,
			"target":34962
		},
		{
			"buffer":0,
			"byteLength":3712,
			"byteOffset":7424,
			"target":34962
		},
		{
			"buffer":0,
			"byteLength":1080,
			"byteOffset":11136,
			"target":34963
		},
		{
			"buffer":0,
			"byteLength":14400,
			"byteOffset":12216,
			"target":34962
		},
		{
			"buffer":0,
			"byteLength":14400,
			"byteOffset":26616,
			"target":34962
		},
		{
			"buffer":0,
			"byteLength":9600,
			"byteOffset":41016,
			"target":34962
		},
		{
			"buffer":0,
			"byteLength":19200,
			"byteOffset":50616,
			"target":34962
		},
		{
			"buffer":0,
			"byteLength":3600,
			"byteOffset":69816,
			"target":34963
		},
		{
			"buffer":0,
			"byteLength":50568,
			"byteOffset":73416,
			"target":34962
		},
		{
			"buffer":0,
			"byteLength":50568,
			"byteOffset":123984,
			"target":34962
		},
		{
			"buffer":0,
			"byteLength":33712,
			"byteOffset":174552,
			"target":34962
		},
		{
			"buffer":0,
			"byteLength":67424,
			"byteOffset":208264,
			"target":34962
		},
		{
			"buffer":0,
			"byteLength":13056,
			"byteOffset":275688,
			"target":34963
		},
		{
			"buffer":0,
			"byteLength":8004,
			"byteOffset":288744,
			"target":34962
		},
		{
			"buffer":0,
			"byteLength":8004,
			"byteOffset":296748,
			"target":34962
		},
		{
			"buffer":0,
			"byteLength":5336,
			"byteOffset":304752,
			"target":34962
		},
		{
			"buffer":0,
			"byteLength":10672,
			"byteOffset":310088,
			"target":34962
		},
		{
			"buffer":0,
			"byteLength":3432,
			"byteOffset":320760,
			"target":34963
		},
		{
			"buffer":0,
			"byteLength":288,
			"byteOffset":324192,
			"target":34962
		},
		{
			"buffer":0,
			"byteLength":288,
			"byteOffset":324480,
			"target":34962
		},
		{
			"buffer":0,
			"byteLength":192,
			"byteOffset":324768,
			"target":34962
		},
		{
			"buffer":0,
			"byteLength":384,
			"byteOffset":324960,
			"target":34962
		},
		{
			"buffer":0,
			"byteLength":72,
			"byteOffset":325344,
			"target":34963
		},
		{
			"buffer":0,
			"byteLength":288,
			"byteOffset":325416,
			"target":34962
		},
		{
			"buffer":0,
			"byteLength":288,
			"byteOffset":325704,
			"target":34962
		},
		{
			"buffer":0,
			"byteLength":192,
			"byteOffset":325992,
			"target":34962
		},
		{
			"buffer":0,
			"byteLength":384,
			"byteOffset":326184,
			"target":34962
		},
		{
			"buffer":0,
			"byteLength":288,
			"byteOffset":326568,
			"target":34962
		},
		{
			"buffer":0,
			"byteLength":288,
			"byteOffset":326856,
			"target":34962
		},
		{
			"buffer":0,
			"byteLength":192,
			"byteOffset":327144,
			"target":34962
		},
		{
			"buffer":0,
			"byteLength":384,
			"byteOffset":327336,
			"target":34962
		},
		{
			"buffer":0,
			"byteLength":288,
			"byteOffset":327720,
			"target":34962
		},
		{
			"buffer":0,
			"byteLength":288,
			"byteOffset":328008,
			"target":34962
		},
		{
			"buffer":0,
			"byteLength":192,
			"byteOffset":328296,
			"target":34962
		},
		{
			"buffer":0,
			"byteLength":384,
			"byteOffset":328488,
			"target":34962
		},
		{
			"buffer":0,
			"byteLength":8004,
			"byteOffset":328872,
			"target":34962
		},
		{
			"buffer":0,
			"byteLength":8004,
			"byteOffset":336876,
			"target":34962
		},
		{
			"buffer":0,
			"byteLength":5336,
			"byteOffset":344880,
			"target":34962
		},
		{
			"buffer":0,
			"byteLength":10672,
			"byteOffset":350216,
			"target":34962
		}
	],
	"buffers":[
		{
			"byteLength":360888,
			"uri":"Base-a607a8f822d42ce029b413109bdcdbcc.bin"
		}
	]
}
