{
	"asset":{
		"generator":"Khronos glTF Blender I/O v3.6.28",
		"version":"2.0"
	},
	"scene":0,
	"scenes":[
		{
			"name":"Scene",
			"nodes":[
				0,
				1,
				2,
				3,
				4,
				5,
				6,
				7,
				8,
				9,
				10,
				11,
				12,
				13,
				14,
				15,
				16,
				17
			]
		}
	],
	"nodes":[
		{
			"mesh":0,
			"name":"Plano80x80P0"
		},
		{
			"mesh":1,
			"name":"Plano80x80P1"
		},
		{
			"mesh":2,
			"name":"Plano80x80P2"
		},
		{
			"mesh":3,
			"name":"Plano80x80P3"
		},
		{
			"mesh":4,
			"name":"Plano80x80P4"
		},
		{
			"mesh":5,
			"name":"Plano80x80P5"
		},
		{
			"mesh":6,
			"name":"Plano80x80"
		},
		{
			"mesh":7,
			"name":"Plano80x80P1_col"
		},
		{
			"mesh":8,
			"name":"Plano80x80P2_col"
		},
		{
			"mesh":9,
			"name":"Plano80x80P3_col"
		},
		{
			"mesh":10,
			"name":"Plano80x80P4_col"
		},
		{
			"mesh":11,
			"name":"Plano80x80P5_col"
		},
		{
			"mesh":12,
			"name":"Plano80x80P0_col"
		},
		{
			"mesh":13,
			"name":"Escalera",
			"scale":[
				0.10000002384185791,
				0.10000002384185791,
				0.10000002384185791
			],
			"translation":[
				134.38949584960938,
				103.91534423828125,
				178.87515258789062
			]
		},
		{
			"name":"Escalera_Eje",
			"rotation":[
				0,
				-0.1491469442844391,
				0,
				0.9888150691986084
			],
			"scale":[
				0.10000002384185791,
				0.10000002384185791,
				0.10000002384185791
			],
			"translation":[
				134.38949584960938,
				103.53013610839844,
				178.87515258789062
			]
		},
		{
			"mesh":14,
			"name":"EscalCara",
			"rotation":[
				0,
				-0.9535922408103943,
				0,
				0.30110108852386475
			],
			"scale":[
				0.10000002384185791,
				0.10000002384185791,
				0.10000002384185791
			],
			"translation":[
				15.29255485534668,
				43.02241897583008,
				1.5280871391296387
			]
		},
		{
			"mesh":15,
			"name":"Cube",
			"translation":[
				451.0526123046875,
				175.24591064453125,
				144.37953186035156
			]
		},
		{
			"mesh":16,
			"name":"EscalCara_col",
			"rotation":[
				0,
				-0.9535922408103943,
				0,
				0.30110108852386475
			],
			"scale":[
				0.10000002384185791,
				0.10000002384185791,
				0.10000002384185791
			],
			"translation":[
				15.29255485534668,
				43.02241897583008,
				1.5280871391296387
			]
		}
	],
	"materials":[
		{
			"doubleSided":true,
			"name":"Material_0",
			"pbrMetallicRoughness":{
				"metallicFactor":0,
				"roughnessFactor":0.5
			}
		},
		{
			"doubleSided":true,
			"name":"Material_0.001",
			"pbrMetallicRoughness":{
				"metallicFactor":0,
				"roughnessFactor":0.5
			}
		},
		{
			"doubleSided":true,
			"name":"Material_0.002",
			"pbrMetallicRoughness":{
				"metallicFactor":0,
				"roughnessFactor":0.5
			}
		},
		{
			"doubleSided":true,
			"name":"Material_0.003",
			"pbrMetallicRoughness":{
				"metallicFactor":0,
				"roughnessFactor":0.5
			}
		},
		{
			"doubleSided":true,
			"name":"Material_0.004",
			"pbrMetallicRoughness":{
				"metallicFactor":0,
				"roughnessFactor":0.5
			}
		},
		{
			"doubleSided":true,
			"name":"Material_0.005",
			"pbrMetallicRoughness":{
				"metallicFactor":0,
				"roughnessFactor":0.5
			}
		}
	],
	"meshes":[
		{
			"name":"Plane.006",
			"primitives":[
				{
					"attributes":{
						"POSITION":0,
						"NORMAL":1,
						"TEXCOORD_0":2,
						"TANGENT":3
					},
					"indices":4,
					"material":0
				}
			]
		},
		{
			"name":"Plane.007",
			"primitives":[
				{
					"attributes":{
						"POSITION":5,
						"NORMAL":6,
						"TEXCOORD_0":7,
						"TANGENT":8
					},
					"indices":9,
					"material":1
				}
			]
		},
		{
			"name":"Plane.008",
			"primitives":[
				{
					"attributes":{
						"POSITION":10,
						"NORMAL":11,
						"TEXCOORD_0":12,
						"TANGENT":13
					},
					"indices":14,
					"material":2
				}
			]
		},
		{
			"name":"Plane.009",
			"primitives":[
				{
					"attributes":{
						"POSITION":15,
						"NORMAL":16,
						"TEXCOORD_0":17,
						"TANGENT":18
					},
					"indices":19,
					"material":3
				}
			]
		},
		{
			"name":"Plane.010",
			"primitives":[
				{
					"attributes":{
						"POSITION":20,
						"NORMAL":21,
						"TEXCOORD_0":22,
						"TANGENT":23
					},
					"indices":24,
					"material":4
				}
			]
		},
		{
			"name":"Plane.011",
			"primitives":[
				{
					"attributes":{
						"POSITION":25,
						"NORMAL":26,
						"TEXCOORD_0":27,
						"TANGENT":28
					},
					"indices":29,
					"material":5
				}
			]
		},
		{
			"name":"Plane.012",
			"primitives":[
				{
					"attributes":{
						"POSITION":30,
						"NORMAL":31,
						"TEXCOORD_0":32,
						"TANGENT":33
					},
					"indices":34,
					"material":0
				}
			]
		},
		{
			"name":"Plane.002",
			"primitives":[
				{
					"attributes":{
						"POSITION":35,
						"NORMAL":36
					},
					"indices":37,
					"material":1
				}
			]
		},
		{
			"name":"Plane.003",
			"primitives":[
				{
					"attributes":{
						"POSITION":38,
						"NORMAL":39
					},
					"indices":40,
					"material":2
				}
			]
		},
		{
			"name":"Plane.004",
			"primitives":[
				{
					"attributes":{
						"POSITION":41,
						"NORMAL":42
					},
					"indices":43,
					"material":3
				}
			]
		},
		{
			"name":"Plane.005",
			"primitives":[
				{
					"attributes":{
						"POSITION":44,
						"NORMAL":45
					},
					"indices":46,
					"material":4
				}
			]
		},
		{
			"name":"Plane.013",
			"primitives":[
				{
					"attributes":{
						"POSITION":47,
						"NORMAL":48
					},
					"indices":29,
					"material":5
				}
			]
		},
		{
			"name":"Plane.014",
			"primitives":[
				{
					"attributes":{
						"POSITION":49,
						"NORMAL":50
					},
					"indices":51,
					"material":0
				}
			]
		},
		{
			"name":"Cube",
			"primitives":[
				{
					"attributes":{
						"POSITION":52,
						"NORMAL":53,
						"TEXCOORD_0":54,
						"TANGENT":55
					},
					"indices":56
				}
			]
		},
		{
			"name":"Cube.002",
			"primitives":[
				{
					"attributes":{
						"POSITION":57,
						"NORMAL":58,
						"TEXCOORD_0":59,
						"TANGENT":60
					},
					"indices":61
				}
			]
		},
		{
			"name":"Cube.004",
			"primitives":[
				{
					"attributes":{
						"POSITION":62,
						"NORMAL":63,
						"TEXCOORD_0":64,
						"TANGENT":65
					},
					"indices":66
				}
			]
		},
		{
			"name":"Cube.005",
			"primitives":[
				{
					"attributes":{
						"POSITION":67,
						"NORMAL":68
					},
					"indices":69
				}
			]
		}
	],
	"accessors":[
		{
			"bufferView":0,
			"componentType":5126,
			"count":17816,
			"max":[
				75.71676635742188,
				88.98641967773438,
				41.1964111328125
			],
			"min":[
				-36.52497863769531,
				17.182193756103516,
				-38.803611755371094
			],
			"type":"VEC3"
		},
		{
			"bufferView":1,
			"componentType":5126,
			"count":17816,
			"type":"VEC3"
		},
		{
			"bufferView":2,
			"componentType":5126,
			"count":17816,
			"type":"VEC2"
		},
		{
			"bufferView":3,
			"componentType":5126,
			"count":17816,
			"type":"VEC4"
		},
		{
			"bufferView":4,
			"componentType":5123,
			"count":71517,
			"type":"SCALAR"
		},
		{
			"bufferView":5,
			"componentType":5126,
			"count":13986,
			"max":[
				73.7215576171875,
				68.39697265625,
				23.205251693725586
			],
			"min":[
				6.721534729003906,
				62.396968841552734,
				-29.794761657714844
			],
			"type":"VEC3"
		},
		{
			"bufferView":6,
			"componentType":5126,
			"count":13986,
			"type":"VEC3"
		},
		{
			"bufferView":7,
			"componentType":5126,
			"count":13986,
			"type":"VEC2"
		},
		{
			"bufferView":8,
			"componentType":5126,
			"count":13986,
			"type":"VEC4"
		},
		{
			"bufferView":9,
			"componentType":5123,
			"count":55962,
			"type":"SCALAR"
		},
		{
			"bufferView":10,
			"componentType":5126,
			"count":11740,
			"max":[
				73.7215576171875,
				74.39697265625,
				23.20525360107422
			],
			"min":[
				6.721534729003906,
				68.39697265625,
				-29.794761657714844
			],
			"type":"VEC3"
		},
		{
			"bufferView":11,
			"componentType":5126,
			"count":11740,
			"type":"VEC3"
		},
		{
			"bufferView":12,
			"componentType":5126,
			"count":11740,
			"type":"VEC2"
		},
		{
			"bufferView":13,
			"componentType":5126,
			"count":11740,
			"type":"VEC4"
		},
		{
			"bufferView":14,
			"componentType":5123,
			"count":45288,
			"type":"SCALAR"
		},
		{
			"bufferView":15,
			"componentType":5126,
			"count":10345,
			"max":[
				72.7215576171875,
				80.39697265625,
				21.205251693725586
			],
			"min":[
				6.721534729003906,
				74.39697265625,
				-29.79475975036621
			],
			"type":"VEC3"
		},
		{
			"bufferView":16,
			"componentType":5126,
			"count":10345,
			"type":"VEC3"
		},
		{
			"bufferView":17,
			"componentType":5126,
			"count":10345,
			"type":"VEC2"
		},
		{
			"bufferView":18,
			"componentType":5126,
			"count":10345,
			"type":"VEC4"
		},
		{
			"bufferView":19,
			"componentType":5123,
			"count":41400,
			"type":"SCALAR"
		},
		{
			"bufferView":20,
			"componentType":5126,
			"count":7582,
			"max":[
				72.7215576171875,
				87.39698028564453,
				22.20525360107422
			],
			"min":[
				6.721538543701172,
				80.39697265625,
				-29.79475975036621
			],
			"type":"VEC3"
		},
		{
			"bufferView":21,
			"componentType":5126,
			"count":7582,
			"type":"VEC3"
		},
		{
			"bufferView":22,
			"componentType":5126,
			"count":7582,
			"type":"VEC2"
		},
		{
			"bufferView":23,
			"componentType":5126,
			"count":7582,
			"type":"VEC4"
		},
		{
			"bufferView":24,
			"componentType":5123,
			"count":27024,
			"type":"SCALAR"
		},
		{
			"bufferView":25,
			"componentType":5126,
			"count":4731,
			"max":[
				70.72775268554688,
				89.39698028564453,
				21.201995849609375
			],
			"min":[
				-4.272274017333984,
				86.39698028564453,
				-27.798019409179688
			],
			"type":"VEC3"
		},
		{
			"bufferView":26,
			"componentType":5126,
			"count":4731,
			"type":"VEC3"
		},
		{
			"bufferView":27,
			"componentType":5126,
			"count":4731,
			"type":"VEC2"
		},
		{
			"bufferView":28,
			"componentType":5126,
			"count":4731,
			"type":"VEC4"
		},
		{
			"bufferView":29,
			"componentType":5123,
			"count":14052,
			"type":"SCALAR"
		},
		{
			"bufferView":30,
			"componentType":5126,
			"count":6561,
			"max":[
				40.022727966308594,
				0,
				39.99716567993164
			],
			"min":[
				-39.977298736572266,
				0,
				-40.00285339355469
			],
			"type":"VEC3"
		},
		{
			"bufferView":31,
			"componentType":5126,
			"count":6561,
			"type":"VEC3"
		},
		{
			"bufferView":32,
			"componentType":5126,
			"count":6561,
			"type":"VEC2"
		},
		{
			"bufferView":33,
			"componentType":5126,
			"count":6561,
			"type":"VEC4"
		},
		{
			"bufferView":34,
			"componentType":5123,
			"count":38400,
			"type":"SCALAR"
		},
		{
			"bufferView":35,
			"componentType":5126,
			"count":13896,
			"max":[
				73.7215576171875,
				68.39697265625,
				23.20525360107422
			],
			"min":[
				6.721534729003906,
				62.396968841552734,
				-29.79475975036621
			],
			"type":"VEC3"
		},
		{
			"bufferView":36,
			"componentType":5126,
			"count":13896,
			"type":"VEC3"
		},
		{
			"bufferView":37,
			"componentType":5123,
			"count":55962,
			"type":"SCALAR"
		},
		{
			"bufferView":38,
			"componentType":5126,
			"count":11697,
			"max":[
				73.7215576171875,
				74.39697265625,
				23.20525360107422
			],
			"min":[
				6.721534729003906,
				68.39697265625,
				-29.794761657714844
			],
			"type":"VEC3"
		},
		{
			"bufferView":39,
			"componentType":5126,
			"count":11697,
			"type":"VEC3"
		},
		{
			"bufferView":40,
			"componentType":5123,
			"count":45288,
			"type":"SCALAR"
		},
		{
			"bufferView":41,
			"componentType":5126,
			"count":10307,
			"max":[
				72.7215576171875,
				80.39697265625,
				21.205251693725586
			],
			"min":[
				6.721534729003906,
				74.39697265625,
				-29.79475975036621
			],
			"type":"VEC3"
		},
		{
			"bufferView":42,
			"componentType":5126,
			"count":10307,
			"type":"VEC3"
		},
		{
			"bufferView":43,
			"componentType":5123,
			"count":41400,
			"type":"SCALAR"
		},
		{
			"bufferView":44,
			"componentType":5126,
			"count":7555,
			"max":[
				72.7215576171875,
				87.39698028564453,
				22.20525360107422
			],
			"min":[
				6.721538543701172,
				80.39697265625,
				-29.79475975036621
			],
			"type":"VEC3"
		},
		{
			"bufferView":45,
			"componentType":5126,
			"count":7555,
			"type":"VEC3"
		},
		{
			"bufferView":46,
			"componentType":5123,
			"count":27024,
			"type":"SCALAR"
		},
		{
			"bufferView":47,
			"componentType":5126,
			"count":4731,
			"max":[
				70.72775268554688,
				89.39698028564453,
				21.201995849609375
			],
			"min":[
				-4.272274017333984,
				86.39698028564453,
				-27.798019409179688
			],
			"type":"VEC3"
		},
		{
			"bufferView":48,
			"componentType":5126,
			"count":4731,
			"type":"VEC3"
		},
		{
			"bufferView":49,
			"componentType":5126,
			"count":17196,
			"max":[
				75.71676635742188,
				88.98641967773438,
				41.1964111328125
			],
			"min":[
				-36.52497863769531,
				17.182193756103516,
				-38.803611755371094
			],
			"type":"VEC3"
		},
		{
			"bufferView":50,
			"componentType":5126,
			"count":17196,
			"type":"VEC3"
		},
		{
			"bufferView":51,
			"componentType":5123,
			"count":71517,
			"type":"SCALAR"
		},
		{
			"bufferView":52,
			"componentType":5126,
			"count":806,
			"max":[
				37.96598815917969,
				4.999999523162842,
				37.8621940612793
			],
			"min":[
				-37.553531646728516,
				-81.7939224243164,
				-37.86274719238281
			],
			"type":"VEC3"
		},
		{
			"bufferView":53,
			"componentType":5126,
			"count":806,
			"type":"VEC3"
		},
		{
			"bufferView":54,
			"componentType":5126,
			"count":806,
			"type":"VEC2"
		},
		{
			"bufferView":55,
			"componentType":5126,
			"count":806,
			"type":"VEC4"
		},
		{
			"bufferView":56,
			"componentType":5123,
			"count":1260,
			"type":"SCALAR"
		},
		{
			"bufferView":57,
			"componentType":5126,
			"count":4616,
			"max":[
				64.60469818115234,
				193.3778076171875,
				61.81954574584961
			],
			"min":[
				-52.5723876953125,
				-259.6894226074219,
				-57.801753997802734
			],
			"type":"VEC3"
		},
		{
			"bufferView":58,
			"componentType":5126,
			"count":4616,
			"type":"VEC3"
		},
		{
			"bufferView":59,
			"componentType":5126,
			"count":4616,
			"type":"VEC2"
		},
		{
			"bufferView":60,
			"componentType":5126,
			"count":4616,
			"type":"VEC4"
		},
		{
			"bufferView":61,
			"componentType":5123,
			"count":6948,
			"type":"SCALAR"
		},
		{
			"bufferView":62,
			"componentType":5126,
			"count":24,
			"max":[
				5,
				5,
				5
			],
			"min":[
				-5,
				-5,
				-5
			],
			"type":"VEC3"
		},
		{
			"bufferView":63,
			"componentType":5126,
			"count":24,
			"type":"VEC3"
		},
		{
			"bufferView":64,
			"componentType":5126,
			"count":24,
			"type":"VEC2"
		},
		{
			"bufferView":65,
			"componentType":5126,
			"count":24,
			"type":"VEC4"
		},
		{
			"bufferView":66,
			"componentType":5123,
			"count":36,
			"type":"SCALAR"
		},
		{
			"bufferView":67,
			"componentType":5126,
			"count":4143,
			"max":[
				64.60469818115234,
				193.3778076171875,
				61.81954574584961
			],
			"min":[
				-52.5723876953125,
				-259.6894226074219,
				-57.801753997802734
			],
			"type":"VEC3"
		},
		{
			"bufferView":68,
			"componentType":5126,
			"count":4143,
			"type":"VEC3"
		},
		{
			"bufferView":69,
			"componentType":5123,
			"count":6948,
			"type":"SCALAR"
		}
	],
	"bufferViews":[
		{
			"buffer":0,
			"byteLength":213792,
			"byteOffset":0,
			"target":34962
		},
		{
			"buffer":0,
			"byteLength":213792,
			"byteOffset":213792,
			"target":34962
		},
		{
			"buffer":0,
			"byteLength":142528,
			"byteOffset":427584,
			"target":34962
		},
		{
			"buffer":0,
			"byteLength":285056,
			"byteOffset":570112,
			"target":34962
		},
		{
			"buffer":0,
			"byteLength":143034,
			"byteOffset":855168,
			"target":34963
		},
		{
			"buffer":0,
			"byteLength":167832,
			"byteOffset":998204,
			"target":34962
		},
		{
			"buffer":0,
			"byteLength":167832,
			"byteOffset":1166036,
			"target":34962
		},
		{
			"buffer":0,
			"byteLength":111888,
			"byteOffset":1333868,
			"target":34962
		},
		{
			"buffer":0,
			"byteLength":223776,
			"byteOffset":1445756,
			"target":34962
		},
		{
			"buffer":0,
			"byteLength":111924,
			"byteOffset":1669532,
			"target":34963
		},
		{
			"buffer":0,
			"byteLength":140880,
			"byteOffset":1781456,
			"target":34962
		},
		{
			"buffer":0,
			"byteLength":140880,
			"byteOffset":1922336,
			"target":34962
		},
		{
			"buffer":0,
			"byteLength":93920,
			"byteOffset":2063216,
			"target":34962
		},
		{
			"buffer":0,
			"byteLength":187840,
			"byteOffset":2157136,
			"target":34962
		},
		{
			"buffer":0,
			"byteLength":90576,
			"byteOffset":2344976,
			"target":34963
		},
		{
			"buffer":0,
			"byteLength":124140,
			"byteOffset":2435552,
			"target":34962
		},
		{
			"buffer":0,
			"byteLength":124140,
			"byteOffset":2559692,
			"target":34962
		},
		{
			"buffer":0,
			"byteLength":82760,
			"byteOffset":2683832,
			"target":34962
		},
		{
			"buffer":0,
			"byteLength":165520,
			"byteOffset":2766592,
			"target":34962
		},
		{
			"buffer":0,
			"byteLength":82800,
			"byteOffset":2932112,
			"target":34963
		},
		{
			"buffer":0,
			"byteLength":90984,
			"byteOffset":3014912,
			"target":34962
		},
		{
			"buffer":0,
			"byteLength":90984,
			"byteOffset":3105896,
			"target":34962
		},
		{
			"buffer":0,
			"byteLength":60656,
			"byteOffset":3196880,
			"target":34962
		},
		{
			"buffer":0,
			"byteLength":121312,
			"byteOffset":3257536,
			"target":34962
		},
		{
			"buffer":0,
			"byteLength":54048,
			"byteOffset":3378848,
			"target":34963
		},
		{
			"buffer":0,
			"byteLength":56772,
			"byteOffset":3432896,
			"target":34962
		},
		{
			"buffer":0,
			"byteLength":56772,
			"byteOffset":3489668,
			"target":34962
		},
		{
			"buffer":0,
			"byteLength":37848,
			"byteOffset":3546440,
			"target":34962
		},
		{
			"buffer":0,
			"byteLength":75696,
			"byteOffset":3584288,
			"target":34962
		},
		{
			"buffer":0,
			"byteLength":28104,
			"byteOffset":3659984,
			"target":34963
		},
		{
			"buffer":0,
			"byteLength":78732,
			"byteOffset":3688088,
			"target":34962
		},
		{
			"buffer":0,
			"byteLength":78732,
			"byteOffset":3766820,
			"target":34962
		},
		{
			"buffer":0,
			"byteLength":52488,
			"byteOffset":3845552,
			"target":34962
		},
		{
			"buffer":0,
			"byteLength":104976,
			"byteOffset":3898040,
			"target":34962
		},
		{
			"buffer":0,
			"byteLength":76800,
			"byteOffset":4003016,
			"target":34963
		},
		{
			"buffer":0,
			"byteLength":166752,
			"byteOffset":4079816,
			"target":34962
		},
		{
			"buffer":0,
			"byteLength":166752,
			"byteOffset":4246568,
			"target":34962
		},
		{
			"buffer":0,
			"byteLength":111924,
			"byteOffset":4413320,
			"target":34963
		},
		{
			"buffer":0,
			"byteLength":140364,
			"byteOffset":4525244,
			"target":34962
		},
		{
			"buffer":0,
			"byteLength":140364,
			"byteOffset":4665608,
			"target":34962
		},
		{
			"buffer":0,
			"byteLength":90576,
			"byteOffset":4805972,
			"target":34963
		},
		{
			"buffer":0,
			"byteLength":123684,
			"byteOffset":4896548,
			"target":34962
		},
		{
			"buffer":0,
			"byteLength":123684,
			"byteOffset":5020232,
			"target":34962
		},
		{
			"buffer":0,
			"byteLength":82800,
			"byteOffset":5143916,
			"target":34963
		},
		{
			"buffer":0,
			"byteLength":90660,
			"byteOffset":5226716,
			"target":34962
		},
		{
			"buffer":0,
			"byteLength":90660,
			"byteOffset":5317376,
			"target":34962
		},
		{
			"buffer":0,
			"byteLength":54048,
			"byteOffset":5408036,
			"target":34963
		},
		{
			"buffer":0,
			"byteLength":56772,
			"byteOffset":5462084,
			"target":34962
		},
		{
			"buffer":0,
			"byteLength":56772,
			"byteOffset":5518856,
			"target":34962
		},
		{
			"buffer":0,
			"byteLength":206352,
			"byteOffset":5575628,
			"target":34962
		},
		{
			"buffer":0,
			"byteLength":206352,
			"byteOffset":5781980,
			"target":34962
		},
		{
			"buffer":0,
			"byteLength":143034,
			"byteOffset":5988332,
			"target":34963
		},
		{
			"buffer":0,
			"byteLength":9672,
			"byteOffset":6131368,
			"target":34962
		},
		{
			"buffer":0,
			"byteLength":9672,
			"byteOffset":6141040,
			"target":34962
		},
		{
			"buffer":0,
			"byteLength":6448,
			"byteOffset":6150712,
			"target":34962
		},
		{
			"buffer":0,
			"byteLength":12896,
			"byteOffset":6157160,
			"target":34962
		},
		{
			"buffer":0,
			"byteLength":2520,
			"byteOffset":6170056,
			"target":34963
		},
		{
			"buffer":0,
			"byteLength":55392,
			"byteOffset":6172576,
			"target":34962
		},
		{
			"buffer":0,
			"byteLength":55392,
			"byteOffset":6227968,
			"target":34962
		},
		{
			"buffer":0,
			"byteLength":36928,
			"byteOffset":6283360,
			"target":34962
		},
		{
			"buffer":0,
			"byteLength":73856,
			"byteOffset":6320288,
			"target":34962
		},
		{
			"buffer":0,
			"byteLength":13896,
			"byteOffset":6394144,
			"target":34963
		},
		{
			"buffer":0,
			"byteLength":288,
			"byteOffset":6408040,
			"target":34962
		},
		{
			"buffer":0,
			"byteLength":288,
			"byteOffset":6408328,
			"target":34962
		},
		{
			"buffer":0,
			"byteLength":192,
			"byteOffset":6408616,
			"target":34962
		},
		{
			"buffer":0,
			"byteLength":384,
			"byteOffset":6408808,
			"target":34962
		},
		{
			"buffer":0,
			"byteLength":72,
			"byteOffset":6409192,
			"target":34963
		},
		{
			"buffer":0,
			"byteLength":49716,
			"byteOffset":6409264,
			"target":34962
		},
		{
			"buffer":0,
			"byteLength":49716,
			"byteOffset":6458980,
			"target":34962
		},
		{
			"buffer":0,
			"byteLength":13896,
			"byteOffset":6508696,
			"target":34963
		}
	],
	"buffers":[
		{
			"byteLength":6522592,
			"uri":"MAr-98267dcfb377d126cdfc2c31e053a326.bin"
		}
	]
}
