{
	"asset":{
		"generator":"Khronos glTF Blender I/O v3.6.28",
		"version":"2.0"
	},
	"scene":0,
	"scenes":[
		{
			"name":"Scene",
			"nodes":[
				0
			]
		}
	],
	"nodes":[
		{
			"mesh":0,
			"name":"Cube"
		}
	],
	"materials":[
		{
			"doubleSided":true,
			"name":"Mat_Isla",
			"pbrMetallicRoughness":{
				"baseColorTexture":{
					"index":0
				},
				"metallicFactor":0,
				"roughnessFactor":0.5
			}
		}
	],
	"meshes":[
		{
			"name":"Cube.001",
			"primitives":[
				{
					"attributes":{
						"POSITION":0,
						"NORMAL":1,
						"TEXCOORD_0":2
					},
					"indices":3,
					"material":0
				}
			]
		}
	],
	"textures":[
		{
			"sampler":0,
			"source":0
		}
	],
	"images":[
		{
			"mimeType":"image/png",
			"name":"Isla_Text",
			"uri":"../../BLENDER/Isla_Text.png"
		}
	],
	"accessors":[
		{
			"bufferView":0,
			"componentType":5126,
			"count":41132,
			"max":[
				512.9458618164062,
				144.50689697265625,
				507.81719970703125
			],
			"min":[
				-499.9847412109375,
				-92.7009048461914,
				-504.8418273925781
			],
			"type":"VEC3"
		},
		{
			"bufferView":1,
			"componentType":5126,
			"count":41132,
			"type":"VEC3"
		},
		{
			"bufferView":2,
			"componentType":5126,
			"count":41132,
			"type":"VEC2"
		},
		{
			"bufferView":3,
			"componentType":5123,
			"count":49299,
			"type":"SCALAR"
		}
	],
	"bufferViews":[
		{
			"buffer":0,
			"byteLength":493584,
			"byteOffset":0,
			"target":34962
		},
		{
			"buffer":0,
			"byteLength":493584,
			"byteOffset":493584,
			"target":34962
		},
		{
			"buffer":0,
			"byteLength":329056,
			"byteOffset":987168,
			"target":34962
		},
		{
			"buffer":0,
			"byteLength":98598,
			"byteOffset":1316224,
			"target":34963
		}
	],
	"samplers":[
		{
			"magFilter":9729,
			"minFilter":9987
		}
	],
	"buffers":[
		{
			"byteLength":1414824,
			"uri":"MAr-98267dcfb377d126cdfc2c31e053a326.bin"
		}
	]
}
