{
	"asset":{
		"generator":"Khronos glTF Blender I/O v3.6.28",
		"version":"2.0"
	},
	"scene":0,
	"scenes":[
		{
			"name":"Scene",
			"nodes":[
				0,
				1,
				2,
				3
			]
		}
	],
	"nodes":[
		{
			"mesh":0,
			"name":"VB3x3Rja",
			"scale":[
				0.010156570002436638,
				0.010156570002436638,
				0.010156570002436638
			],
			"translation":[
				-0.06590557098388672,
				1.5215532779693604,
				0.018445488065481186
			]
		},
		{
			"mesh":1,
			"name":"VB3x3Bor",
			"rotation":[
				0,
				0.7071065902709961,
				0,
				0.7071070671081543
			],
			"scale":[
				5.513520240783691,
				3.871152877807617,
				4.336665153503418
			],
			"translation":[
				-1.7889862060546875,
				1.2744261026382446,
				0.020090728998184204
			]
		},
		{
			"mesh":2,
			"name":"VB3x3Sup",
			"rotation":[
				0,
				0,
				-0.7071066498756409,
				0.70710688829422
			],
			"scale":[
				0.010097471065819263,
				0.010175361298024654,
				0.010097471065819263
			],
			"translation":[
				3.3623557090759277,
				-0.06585019826889038,
				0.020085930824279785
			]
		},
		{
			"mesh":3,
			"name":"VB3x3Bor-col",
			"translation":[
				-0.45851147174835205,
				1.0212301015853882,
				0
			]
		}
	],
	"materials":[
		{
			"doubleSided":true,
			"name":"Mt_Rejas.002",
			"pbrMetallicRoughness":{
				"baseColorTexture":{
					"index":0
				},
				"metallicFactor":0,
				"roughnessFactor":0.5
			}
		},
		{
			"doubleSided":true,
			"name":"Mt_Rejas",
			"pbrMetallicRoughness":{
				"baseColorTexture":{
					"index":1
				},
				"metallicFactor":0,
				"roughnessFactor":0.5
			}
		},
		{
			"doubleSided":true,
			"name":"Mt_Rejas.003",
			"pbrMetallicRoughness":{
				"baseColorTexture":{
					"index":2
				},
				"metallicFactor":0,
				"roughnessFactor":0.5
			}
		}
	],
	"meshes":[
		{
			"name":"Cylinder.021",
			"primitives":[
				{
					"attributes":{
						"POSITION":0,
						"NORMAL":1,
						"TEXCOORD_0":2
					},
					"indices":3,
					"material":0
				}
			]
		},
		{
			"name":"Cube.008",
			"primitives":[
				{
					"attributes":{
						"POSITION":4,
						"NORMAL":5,
						"TEXCOORD_0":6
					},
					"indices":7,
					"material":1
				}
			]
		},
		{
			"name":"Cylinder.030",
			"primitives":[
				{
					"attributes":{
						"POSITION":8,
						"NORMAL":9,
						"TEXCOORD_0":10
					},
					"indices":11,
					"material":2
				}
			]
		},
		{
			"name":"Cube.005",
			"primitives":[
				{
					"attributes":{
						"POSITION":12,
						"NORMAL":13
					},
					"indices":14
				}
			]
		}
	],
	"textures":[
		{
			"sampler":0,
			"source":0
		},
		{
			"sampler":0,
			"source":0
		},
		{
			"sampler":0,
			"source":0
		}
	],
	"images":[
		{
			"mimeType":"image/png",
			"name":"Tx_Balla",
			"uri":"Tx_Balla.png"
		}
	],
	"accessors":[
		{
			"bufferView":0,
			"componentType":5126,
			"count":300,
			"max":[
				148.79269409179688,
				108.54073333740234,
				3.4181694984436035
			],
			"min":[
				-135.89430236816406,
				-147.3680877685547,
				-4.758864879608154
			],
			"type":"VEC3"
		},
		{
			"bufferView":1,
			"componentType":5126,
			"count":300,
			"type":"VEC3"
		},
		{
			"bufferView":2,
			"componentType":5126,
			"count":300,
			"type":"VEC2"
		},
		{
			"bufferView":3,
			"componentType":5123,
			"count":450,
			"type":"SCALAR"
		},
		{
			"bufferView":4,
			"componentType":5126,
			"count":224,
			"max":[
				0.017102593556046486,
				0.34750616550445557,
				0.7625842690467834
			],
			"min":[
				-0.015544156543910503,
				-0.32320597767829895,
				0.06452146917581558
			],
			"type":"VEC3"
		},
		{
			"bufferView":5,
			"componentType":5126,
			"count":224,
			"type":"VEC3"
		},
		{
			"bufferView":6,
			"componentType":5126,
			"count":224,
			"type":"VEC2"
		},
		{
			"bufferView":7,
			"componentType":5123,
			"count":480,
			"type":"SCALAR"
		},
		{
			"bufferView":8,
			"componentType":5126,
			"count":100,
			"max":[
				-264.9738464355469,
				-190.8485107421875,
				65.1510238647461
			],
			"min":[
				-337.2918395996094,
				-470.3582458496094,
				-6.572718620300293
			],
			"type":"VEC3"
		},
		{
			"bufferView":9,
			"componentType":5126,
			"count":100,
			"type":"VEC3"
		},
		{
			"bufferView":10,
			"componentType":5126,
			"count":100,
			"type":"VEC2"
		},
		{
			"bufferView":11,
			"componentType":5123,
			"count":162,
			"type":"SCALAR"
		},
		{
			"bufferView":12,
			"componentType":5126,
			"count":24,
			"max":[
				1.8961814641952515,
				1.6044013500213623,
				0.14063382148742676
			],
			"min":[
				-1,
				-1,
				-0.08505666255950928
			],
			"type":"VEC3"
		},
		{
			"bufferView":13,
			"componentType":5126,
			"count":24,
			"type":"VEC3"
		},
		{
			"bufferView":14,
			"componentType":5123,
			"count":36,
			"type":"SCALAR"
		}
	],
	"bufferViews":[
		{
			"buffer":0,
			"byteLength":3600,
			"byteOffset":0,
			"target":34962
		},
		{
			"buffer":0,
			"byteLength":3600,
			"byteOffset":3600,
			"target":34962
		},
		{
			"buffer":0,
			"byteLength":2400,
			"byteOffset":7200,
			"target":34962
		},
		{
			"buffer":0,
			"byteLength":900,
			"byteOffset":9600,
			"target":34963
		},
		{
			"buffer":0,
			"byteLength":2688,
			"byteOffset":10500,
			"target":34962
		},
		{
			"buffer":0,
			"byteLength":2688,
			"byteOffset":13188,
			"target":34962
		},
		{
			"buffer":0,
			"byteLength":1792,
			"byteOffset":15876,
			"target":34962
		},
		{
			"buffer":0,
			"byteLength":960,
			"byteOffset":17668,
			"target":34963
		},
		{
			"buffer":0,
			"byteLength":1200,
			"byteOffset":18628,
			"target":34962
		},
		{
			"buffer":0,
			"byteLength":1200,
			"byteOffset":19828,
			"target":34962
		},
		{
			"buffer":0,
			"byteLength":800,
			"byteOffset":21028,
			"target":34962
		},
		{
			"buffer":0,
			"byteLength":324,
			"byteOffset":21828,
			"target":34963
		},
		{
			"buffer":0,
			"byteLength":288,
			"byteOffset":22152,
			"target":34962
		},
		{
			"buffer":0,
			"byteLength":288,
			"byteOffset":22440,
			"target":34962
		},
		{
			"buffer":0,
			"byteLength":72,
			"byteOffset":22728,
			"target":34963
		}
	],
	"samplers":[
		{
			"magFilter":9729,
			"minFilter":9987
		}
	],
	"buffers":[
		{
			"byteLength":22800,
			"uri":"VB3x3.bin"
		}
	]
}
