{
	"asset":{
		"generator":"Khronos glTF Blender I/O v3.6.28",
		"version":"2.0"
	},
	"scene":0,
	"scenes":[
		{
			"name":"Scene",
			"nodes":[
				0,
				1,
				2,
				3,
				4
			]
		}
	],
	"nodes":[
		{
			"mesh":0,
			"name":"VA6x3Bor",
			"rotation":[
				0,
				0.7071065902709961,
				0,
				0.7071070671081543
			],
			"scale":[
				5.57047700881958,
				3.911142587661743,
				4.538607120513916
			],
			"translation":[
				3.3614020347595215,
				-0.06411415338516235,
				0.020085930824279785
			]
		},
		{
			"mesh":1,
			"name":"VA6x3Sup",
			"rotation":[
				0,
				0,
				-0.7071066498756409,
				0.70710688829422
			],
			"scale":[
				0.010097471065819263,
				0.010175361298024654,
				0.010097471065819263
			],
			"translation":[
				3.3623557090759277,
				-0.06585019826889038,
				0.020085930824279785
			]
		},
		{
			"mesh":2,
			"name":"VA6x3RjaB",
			"scale":[
				0.010175361298024654,
				0.010097471065819263,
				0.010097471065819263
			],
			"translation":[
				-4.152387619018555,
				1.4668209552764893,
				0.01845027320086956
			]
		},
		{
			"mesh":3,
			"name":"VA6x3RjaC",
			"scale":[
				0.010175361298024654,
				0.010097471065819263,
				0.010097471065819263
			],
			"translation":[
				-4.152387619018555,
				1.4668209552764893,
				0.01845027320086956
			]
		},
		{
			"mesh":4,
			"name":"VA6x3-col",
			"translation":[
				-1.8430894613265991,
				1.6219184398651123,
				0
			]
		}
	],
	"materials":[
		{
			"doubleSided":true,
			"name":"Mt_Rejas",
			"pbrMetallicRoughness":{
				"baseColorTexture":{
					"index":0
				},
				"metallicFactor":0,
				"roughnessFactor":0.5
			}
		}
	],
	"meshes":[
		{
			"name":"Cube.010",
			"primitives":[
				{
					"attributes":{
						"POSITION":0,
						"NORMAL":1,
						"TEXCOORD_0":2
					},
					"indices":3,
					"material":0
				}
			]
		},
		{
			"name":"Cylinder.027",
			"primitives":[
				{
					"attributes":{
						"POSITION":4,
						"NORMAL":5,
						"TEXCOORD_0":6
					},
					"indices":7,
					"material":0
				}
			]
		},
		{
			"name":"Cylinder.032",
			"primitives":[
				{
					"attributes":{
						"POSITION":8,
						"NORMAL":9,
						"TEXCOORD_0":10
					},
					"indices":11,
					"material":0
				}
			]
		},
		{
			"name":"Cylinder.002",
			"primitives":[
				{
					"attributes":{
						"POSITION":12,
						"NORMAL":13,
						"TEXCOORD_0":14
					},
					"indices":15,
					"material":0
				}
			]
		},
		{
			"name":"Cube",
			"primitives":[
				{
					"attributes":{
						"POSITION":16,
						"NORMAL":17
					},
					"indices":18
				}
			]
		}
	],
	"textures":[
		{
			"sampler":0,
			"source":0
		}
	],
	"images":[
		{
			"mimeType":"image/png",
			"name":"Tx_Balla",
			"uri":"Tx_Balla.png"
		}
	],
	"accessors":[
		{
			"bufferView":0,
			"componentType":5126,
			"count":224,
			"max":[
				0.01373039186000824,
				0.6888627409934998,
				-0.08017987757921219
			],
			"min":[
				-0.015535013750195503,
				0.023390116170048714,
				-1.3963545560836792
			],
			"type":"VEC3"
		},
		{
			"bufferView":1,
			"componentType":5126,
			"count":224,
			"type":"VEC3"
		},
		{
			"bufferView":2,
			"componentType":5126,
			"count":224,
			"type":"VEC2"
		},
		{
			"bufferView":3,
			"componentType":5123,
			"count":480,
			"type":"SCALAR"
		},
		{
			"bufferView":4,
			"componentType":5126,
			"count":132,
			"max":[
				-265.254638671875,
				-44.072906494140625,
				65.15103912353516
			],
			"min":[
				-337.66656494140625,
				-608.3203735351562,
				-6.572732925415039
			],
			"type":"VEC3"
		},
		{
			"bufferView":5,
			"componentType":5126,
			"count":132,
			"type":"VEC3"
		},
		{
			"bufferView":6,
			"componentType":5126,
			"count":132,
			"type":"VEC2"
		},
		{
			"bufferView":7,
			"componentType":5123,
			"count":216,
			"type":"SCALAR"
		},
		{
			"bufferView":8,
			"componentType":5126,
			"count":480,
			"max":[
				694.65283203125,
				114.75985717773438,
				4.102174282073975
			],
			"min":[
				131.306640625,
				-141.57354736328125,
				-4.074860095977783
			],
			"type":"VEC3"
		},
		{
			"bufferView":9,
			"componentType":5126,
			"count":480,
			"type":"VEC3"
		},
		{
			"bufferView":10,
			"componentType":5126,
			"count":480,
			"type":"VEC2"
		},
		{
			"bufferView":11,
			"componentType":5123,
			"count":720,
			"type":"SCALAR"
		},
		{
			"bufferView":12,
			"componentType":5126,
			"count":687,
			"max":[
				694.65283203125,
				114.91864013671875,
				12.218877792358398
			],
			"min":[
				131.306640625,
				-141.57354736328125,
				-16.42852210998535
			],
			"type":"VEC3"
		},
		{
			"bufferView":13,
			"componentType":5126,
			"count":687,
			"type":"VEC3"
		},
		{
			"bufferView":14,
			"componentType":5126,
			"count":687,
			"type":"VEC2"
		},
		{
			"bufferView":15,
			"componentType":5123,
			"count":1029,
			"type":"SCALAR"
		},
		{
			"bufferView":16,
			"componentType":5126,
			"count":24,
			"max":[
				4.751217842102051,
				1,
				0.125995934009552
			],
			"min":[
				-1,
				-1.5885772705078125,
				-0.12599587440490723
			],
			"type":"VEC3"
		},
		{
			"bufferView":17,
			"componentType":5126,
			"count":24,
			"type":"VEC3"
		},
		{
			"bufferView":18,
			"componentType":5123,
			"count":36,
			"type":"SCALAR"
		}
	],
	"bufferViews":[
		{
			"buffer":0,
			"byteLength":2688,
			"byteOffset":0,
			"target":34962
		},
		{
			"buffer":0,
			"byteLength":2688,
			"byteOffset":2688,
			"target":34962
		},
		{
			"buffer":0,
			"byteLength":1792,
			"byteOffset":5376,
			"target":34962
		},
		{
			"buffer":0,
			"byteLength":960,
			"byteOffset":7168,
			"target":34963
		},
		{
			"buffer":0,
			"byteLength":1584,
			"byteOffset":8128,
			"target":34962
		},
		{
			"buffer":0,
			"byteLength":1584,
			"byteOffset":9712,
			"target":34962
		},
		{
			"buffer":0,
			"byteLength":1056,
			"byteOffset":11296,
			"target":34962
		},
		{
			"buffer":0,
			"byteLength":432,
			"byteOffset":12352,
			"target":34963
		},
		{
			"buffer":0,
			"byteLength":5760,
			"byteOffset":12784,
			"target":34962
		},
		{
			"buffer":0,
			"byteLength":5760,
			"byteOffset":18544,
			"target":34962
		},
		{
			"buffer":0,
			"byteLength":3840,
			"byteOffset":24304,
			"target":34962
		},
		{
			"buffer":0,
			"byteLength":1440,
			"byteOffset":28144,
			"target":34963
		},
		{
			"buffer":0,
			"byteLength":8244,
			"byteOffset":29584,
			"target":34962
		},
		{
			"buffer":0,
			"byteLength":8244,
			"byteOffset":37828,
			"target":34962
		},
		{
			"buffer":0,
			"byteLength":5496,
			"byteOffset":46072,
			"target":34962
		},
		{
			"buffer":0,
			"byteLength":2058,
			"byteOffset":51568,
			"target":34963
		},
		{
			"buffer":0,
			"byteLength":288,
			"byteOffset":53628,
			"target":34962
		},
		{
			"buffer":0,
			"byteLength":288,
			"byteOffset":53916,
			"target":34962
		},
		{
			"buffer":0,
			"byteLength":72,
			"byteOffset":54204,
			"target":34963
		}
	],
	"samplers":[
		{
			"magFilter":9729,
			"minFilter":9987
		}
	],
	"buffers":[
		{
			"byteLength":54276,
			"uri":"VC3x3.bin"
		}
	]
}
