{
	"asset":{
		"generator":"Khronos glTF Blender I/O v3.6.28",
		"version":"2.0"
	},
	"scene":0,
	"scenes":[
		{
			"name":"Scene",
			"nodes":[
				0,
				1,
				2,
				3,
				4,
				5,
				6,
				7
			]
		}
	],
	"nodes":[
		{
			"mesh":0,
			"name":"VC3x3_PuAEx",
			"scale":[
				0.009816792793571949,
				0.008750105276703835,
				0.009816792793571949
			],
			"translation":[
				0.5116866827011108,
				0.10122944414615631,
				0.04989084601402283
			]
		},
		{
			"mesh":1,
			"name":"VC3x3_PuAIn",
			"scale":[
				0.009816792793571949,
				0.008750105276703835,
				0.009816792793571949
			],
			"translation":[
				0.8712722063064575,
				0.9440586566925049,
				0.02029557153582573
			]
		},
		{
			"mesh":2,
			"name":"VC3x3_PuExRej",
			"rotation":[
				0,
				0,
				-0.7071066498756409,
				0.70710688829422
			],
			"scale":[
				0.008750105276703835,
				0.009816792793571949,
				0.009816792793571949
			],
			"translation":[
				-0.7316402196884155,
				3.6921939849853516,
				0.02029557153582573
			]
		},
		{
			"mesh":3,
			"name":"VC3x3_Sup",
			"rotation":[
				0,
				0,
				-0.7071066498756409,
				0.70710688829422
			],
			"scale":[
				0.008750105276703835,
				0.009816792793571949,
				0.009816792793571949
			],
			"translation":[
				-0.7316402196884155,
				3.6921939849853516,
				0.02029557153582573
			]
		},
		{
			"mesh":4,
			"name":"VC3x3_PuBor",
			"rotation":[
				0.5,
				-0.5,
				0.5,
				0.5
			],
			"scale":[
				6.936487197875977,
				4.579766750335693,
				2.818448543548584
			],
			"translation":[
				0.013062180019915104,
				0.060203924775123596,
				0.02029557153582573
			]
		},
		{
			"mesh":5,
			"name":"VC3x3_PuBIn",
			"scale":[
				0.009816792793571949,
				0.008750105276703835,
				0.009816792793571949
			],
			"translation":[
				0.8712722063064575,
				0.9440586566925049,
				0.02029557153582573
			]
		},
		{
			"mesh":6,
			"name":"VC3x3_Pu-col",
			"translation":[
				0.11096131056547165,
				1.1723304986953735,
				0
			]
		},
		{
			"mesh":7,
			"name":"VC3x3_Mar-col",
			"translation":[
				0.11096131056547165,
				1.1723304986953735,
				0
			]
		}
	],
	"materials":[
		{
			"doubleSided":true,
			"name":"Mt_Rejas",
			"pbrMetallicRoughness":{
				"baseColorTexture":{
					"index":0
				},
				"metallicFactor":0,
				"roughnessFactor":0.5
			}
		}
	],
	"meshes":[
		{
			"name":"Plane.001",
			"primitives":[
				{
					"attributes":{
						"POSITION":0,
						"NORMAL":1,
						"TEXCOORD_0":2
					},
					"indices":3,
					"material":0
				}
			]
		},
		{
			"name":"Plane",
			"primitives":[
				{
					"attributes":{
						"POSITION":4,
						"NORMAL":5,
						"TEXCOORD_0":6
					},
					"indices":7,
					"material":0
				}
			]
		},
		{
			"name":"Cylinder.023",
			"primitives":[
				{
					"attributes":{
						"POSITION":8,
						"NORMAL":9,
						"TEXCOORD_0":10
					},
					"indices":11,
					"material":0
				}
			]
		},
		{
			"name":"Cylinder.026",
			"primitives":[
				{
					"attributes":{
						"POSITION":12,
						"NORMAL":13,
						"TEXCOORD_0":14
					},
					"indices":15,
					"material":0
				}
			]
		},
		{
			"name":"Cube.001",
			"primitives":[
				{
					"attributes":{
						"POSITION":16,
						"NORMAL":17,
						"TEXCOORD_0":18
					},
					"indices":19,
					"material":0
				}
			]
		},
		{
			"name":"Plane.002",
			"primitives":[
				{
					"attributes":{
						"POSITION":20,
						"NORMAL":21,
						"TEXCOORD_0":22
					},
					"indices":23,
					"material":0
				}
			]
		},
		{
			"name":"Cube.003",
			"primitives":[
				{
					"attributes":{
						"POSITION":24,
						"NORMAL":25
					},
					"indices":26
				}
			]
		},
		{
			"name":"Cube.004",
			"primitives":[
				{
					"attributes":{
						"POSITION":27,
						"NORMAL":28
					},
					"indices":29
				}
			]
		}
	],
	"textures":[
		{
			"sampler":0,
			"source":0
		}
	],
	"images":[
		{
			"mimeType":"image/png",
			"name":"Tx_Balla",
			"uri":"Tx_Balla.png"
		}
	],
	"accessors":[
		{
			"bufferView":0,
			"componentType":5126,
			"count":212,
			"max":[
				85.71556091308594,
				288.01885986328125,
				2.09808349609375e-05
			],
			"min":[
				-187.9924774169922,
				-0.2787628173828125,
				-8.76980972290039
			],
			"type":"VEC3"
		},
		{
			"bufferView":1,
			"componentType":5126,
			"count":212,
			"type":"VEC3"
		},
		{
			"bufferView":2,
			"componentType":5126,
			"count":212,
			"type":"VEC2"
		},
		{
			"bufferView":3,
			"componentType":5123,
			"count":492,
			"type":"SCALAR"
		},
		{
			"bufferView":4,
			"componentType":5126,
			"count":658,
			"max":[
				3.586127281188965,
				140.05979919433594,
				13.707804679870605
			],
			"min":[
				-178.07240295410156,
				-100.43727111816406,
				-13.501657485961914
			],
			"type":"VEC3"
		},
		{
			"bufferView":5,
			"componentType":5126,
			"count":658,
			"type":"VEC3"
		},
		{
			"bufferView":6,
			"componentType":5126,
			"count":658,
			"type":"VEC2"
		},
		{
			"bufferView":7,
			"componentType":5123,
			"count":1188,
			"type":"SCALAR"
		},
		{
			"bufferView":8,
			"componentType":5126,
			"count":360,
			"max":[
				406.2663879394531,
				215.88912963867188,
				1.9244682788848877
			],
			"min":[
				121.62965393066406,
				-64.6199951171875,
				-2.234998941421509
			],
			"type":"VEC3"
		},
		{
			"bufferView":9,
			"componentType":5126,
			"count":360,
			"type":"VEC3"
		},
		{
			"bufferView":10,
			"componentType":5126,
			"count":360,
			"type":"VEC2"
		},
		{
			"bufferView":11,
			"componentType":5123,
			"count":540,
			"type":"SCALAR"
		},
		{
			"bufferView":12,
			"componentType":5126,
			"count":100,
			"max":[
				123.03227996826172,
				218.9392547607422,
				65.37991333007812
			],
			"min":[
				39.78900146484375,
				-70.02751159667969,
				-7.574746131896973
			],
			"type":"VEC3"
		},
		{
			"bufferView":13,
			"componentType":5126,
			"count":100,
			"type":"VEC3"
		},
		{
			"bufferView":14,
			"componentType":5126,
			"count":100,
			"type":"VEC2"
		},
		{
			"bufferView":15,
			"componentType":5123,
			"count":162,
			"type":"SCALAR"
		},
		{
			"bufferView":16,
			"componentType":5126,
			"count":207,
			"max":[
				0.015902429819107056,
				0.32807791233062744,
				0.01371737476438284
			],
			"min":[
				-0.01689072512090206,
				-0.324518620967865,
				-0.9240834712982178
			],
			"type":"VEC3"
		},
		{
			"bufferView":17,
			"componentType":5126,
			"count":207,
			"type":"VEC3"
		},
		{
			"bufferView":18,
			"componentType":5126,
			"count":207,
			"type":"VEC2"
		},
		{
			"bufferView":19,
			"componentType":5123,
			"count":432,
			"type":"SCALAR"
		},
		{
			"bufferView":20,
			"componentType":5126,
			"count":1219,
			"max":[
				3.586127281188965,
				140.05979919433594,
				15.673046112060547
			],
			"min":[
				-178.07240295410156,
				-100.43727111816406,
				-44.2496337890625
			],
			"type":"VEC3"
		},
		{
			"bufferView":21,
			"componentType":5126,
			"count":1219,
			"type":"VEC3"
		},
		{
			"bufferView":22,
			"componentType":5126,
			"count":1219,
			"type":"VEC2"
		},
		{
			"bufferView":23,
			"componentType":5123,
			"count":2037,
			"type":"SCALAR"
		},
		{
			"bufferView":24,
			"componentType":5126,
			"count":24,
			"max":[
				0.7346577644348145,
				1,
				0.13090780377388
			],
			"min":[
				-1,
				-1.1206101179122925,
				-0.08266374468803406
			],
			"type":"VEC3"
		},
		{
			"bufferView":25,
			"componentType":5126,
			"count":24,
			"type":"VEC3"
		},
		{
			"bufferView":26,
			"componentType":5123,
			"count":36,
			"type":"SCALAR"
		},
		{
			"bufferView":27,
			"componentType":5126,
			"count":64,
			"max":[
				1.3101637363433838,
				1.5065624713897705,
				0.13090780377388
			],
			"min":[
				-1.5755059719085693,
				-1.1206101179122925,
				-0.08266374468803406
			],
			"type":"VEC3"
		},
		{
			"bufferView":28,
			"componentType":5126,
			"count":64,
			"type":"VEC3"
		},
		{
			"bufferView":29,
			"componentType":5123,
			"count":132,
			"type":"SCALAR"
		}
	],
	"bufferViews":[
		{
			"buffer":0,
			"byteLength":2544,
			"byteOffset":0,
			"target":34962
		},
		{
			"buffer":0,
			"byteLength":2544,
			"byteOffset":2544,
			"target":34962
		},
		{
			"buffer":0,
			"byteLength":1696,
			"byteOffset":5088,
			"target":34962
		},
		{
			"buffer":0,
			"byteLength":984,
			"byteOffset":6784,
			"target":34963
		},
		{
			"buffer":0,
			"byteLength":7896,
			"byteOffset":7768,
			"target":34962
		},
		{
			"buffer":0,
			"byteLength":7896,
			"byteOffset":15664,
			"target":34962
		},
		{
			"buffer":0,
			"byteLength":5264,
			"byteOffset":23560,
			"target":34962
		},
		{
			"buffer":0,
			"byteLength":2376,
			"byteOffset":28824,
			"target":34963
		},
		{
			"buffer":0,
			"byteLength":4320,
			"byteOffset":31200,
			"target":34962
		},
		{
			"buffer":0,
			"byteLength":4320,
			"byteOffset":35520,
			"target":34962
		},
		{
			"buffer":0,
			"byteLength":2880,
			"byteOffset":39840,
			"target":34962
		},
		{
			"buffer":0,
			"byteLength":1080,
			"byteOffset":42720,
			"target":34963
		},
		{
			"buffer":0,
			"byteLength":1200,
			"byteOffset":43800,
			"target":34962
		},
		{
			"buffer":0,
			"byteLength":1200,
			"byteOffset":45000,
			"target":34962
		},
		{
			"buffer":0,
			"byteLength":800,
			"byteOffset":46200,
			"target":34962
		},
		{
			"buffer":0,
			"byteLength":324,
			"byteOffset":47000,
			"target":34963
		},
		{
			"buffer":0,
			"byteLength":2484,
			"byteOffset":47324,
			"target":34962
		},
		{
			"buffer":0,
			"byteLength":2484,
			"byteOffset":49808,
			"target":34962
		},
		{
			"buffer":0,
			"byteLength":1656,
			"byteOffset":52292,
			"target":34962
		},
		{
			"buffer":0,
			"byteLength":864,
			"byteOffset":53948,
			"target":34963
		},
		{
			"buffer":0,
			"byteLength":14628,
			"byteOffset":54812,
			"target":34962
		},
		{
			"buffer":0,
			"byteLength":14628,
			"byteOffset":69440,
			"target":34962
		},
		{
			"buffer":0,
			"byteLength":9752,
			"byteOffset":84068,
			"target":34962
		},
		{
			"buffer":0,
			"byteLength":4074,
			"byteOffset":93820,
			"target":34963
		},
		{
			"buffer":0,
			"byteLength":288,
			"byteOffset":97896,
			"target":34962
		},
		{
			"buffer":0,
			"byteLength":288,
			"byteOffset":98184,
			"target":34962
		},
		{
			"buffer":0,
			"byteLength":72,
			"byteOffset":98472,
			"target":34963
		},
		{
			"buffer":0,
			"byteLength":768,
			"byteOffset":98544,
			"target":34962
		},
		{
			"buffer":0,
			"byteLength":768,
			"byteOffset":99312,
			"target":34962
		},
		{
			"buffer":0,
			"byteLength":264,
			"byteOffset":100080,
			"target":34963
		}
	],
	"samplers":[
		{
			"magFilter":9729,
			"minFilter":9987
		}
	],
	"buffers":[
		{
			"byteLength":100344,
			"uri":"VC3x3.bin"
		}
	]
}
