{
	"asset":{
		"generator":"Khronos glTF Blender I/O v3.5.30",
		"version":"2.0"
	},
	"scene":0,
	"scenes":[
		{
			"name":"Scene",
			"nodes":[
				2
			]
		}
	],
	"nodes":[
		{
			"mesh":0,
			"name":"Cube.001",
			"translation":[
				-0.7607876658439636,
				0.9022338390350342,
				0.5196824073791504
			]
		},
		{
			"mesh":1,
			"name":"Cube.002",
			"translation":[
				0.75850909948349,
				0.9022338390350342,
				0.5044077634811401
			]
		},
		{
			"children":[
				0,
				1
			],
			"mesh":2,
			"name":"Cube",
			"translation":[
				-0.23436802625656128,
				-1.0996108055114746,
				0.49982765316963196
			]
		}
	],
	"animations":[
		{
			"channels":[
				{
					"sampler":0,
					"target":{
						"node":2,
						"path":"translation"
					}
				},
				{
					"sampler":1,
					"target":{
						"node":2,
						"path":"rotation"
					}
				},
				{
					"sampler":2,
					"target":{
						"node":2,
						"path":"scale"
					}
				}
			],
			"name":"Cube",
			"samplers":[
				{
					"input":22,
					"interpolation":"LINEAR",
					"output":23
				},
				{
					"input":22,
					"interpolation":"LINEAR",
					"output":24
				},
				{
					"input":22,
					"interpolation":"LINEAR",
					"output":25
				}
			]
		},
		{
			"channels":[
				{
					"sampler":0,
					"target":{
						"node":0,
						"path":"translation"
					}
				},
				{
					"sampler":1,
					"target":{
						"node":0,
						"path":"rotation"
					}
				},
				{
					"sampler":2,
					"target":{
						"node":0,
						"path":"scale"
					}
				}
			],
			"name":"Cube.001Action.001",
			"samplers":[
				{
					"input":22,
					"interpolation":"LINEAR",
					"output":26
				},
				{
					"input":22,
					"interpolation":"LINEAR",
					"output":27
				},
				{
					"input":22,
					"interpolation":"LINEAR",
					"output":28
				}
			]
		},
		{
			"channels":[
				{
					"sampler":0,
					"target":{
						"node":1,
						"path":"rotation"
					}
				},
				{
					"sampler":1,
					"target":{
						"node":1,
						"path":"translation"
					}
				},
				{
					"sampler":2,
					"target":{
						"node":1,
						"path":"scale"
					}
				}
			],
			"name":"Cube.002Action",
			"samplers":[
				{
					"input":22,
					"interpolation":"LINEAR",
					"output":29
				},
				{
					"input":22,
					"interpolation":"LINEAR",
					"output":30
				},
				{
					"input":22,
					"interpolation":"LINEAR",
					"output":31
				}
			]
		}
	],
	"meshes":[
		{
			"name":"Cube.001",
			"primitives":[
				{
					"attributes":{
						"POSITION":0,
						"TEXCOORD_0":1,
						"NORMAL":2
					},
					"indices":3
				},
				{
					"attributes":{
						"POSITION":4,
						"TEXCOORD_0":5,
						"NORMAL":6
					},
					"indices":7
				}
			]
		},
		{
			"name":"Cube.005",
			"primitives":[
				{
					"attributes":{
						"POSITION":8,
						"TEXCOORD_0":9,
						"NORMAL":10
					},
					"indices":3
				},
				{
					"attributes":{
						"POSITION":11,
						"TEXCOORD_0":12,
						"NORMAL":13
					},
					"indices":7
				}
			]
		},
		{
			"name":"Cube",
			"primitives":[
				{
					"attributes":{
						"POSITION":14,
						"TEXCOORD_0":15,
						"NORMAL":16
					},
					"indices":17
				},
				{
					"attributes":{
						"POSITION":18,
						"TEXCOORD_0":19,
						"NORMAL":20
					},
					"indices":21
				}
			]
		}
	],
	"accessors":[
		{
			"bufferView":0,
			"componentType":5126,
			"count":88,
			"max":[
				0.757651686668396,
				0.7063171863555908,
				3.129243850708008e-05
			],
			"min":[
				0.0023241043090820312,
				-0.8026230335235596,
				-0.015588104724884033
			],
			"type":"VEC3"
		},
		{
			"bufferView":1,
			"componentType":5126,
			"count":88,
			"type":"VEC2"
		},
		{
			"bufferView":2,
			"componentType":5126,
			"count":88,
			"type":"VEC3"
		},
		{
			"bufferView":3,
			"componentType":5123,
			"count":252,
			"type":"SCALAR"
		},
		{
			"bufferView":4,
			"componentType":5126,
			"count":16,
			"max":[
				0.6890205144882202,
				0.6192874908447266,
				3.129243850708008e-05
			],
			"min":[
				0.07095563411712646,
				-0.6907275915145874,
				-0.015588104724884033
			],
			"type":"VEC3"
		},
		{
			"bufferView":5,
			"componentType":5126,
			"count":16,
			"type":"VEC2"
		},
		{
			"bufferView":6,
			"componentType":5126,
			"count":16,
			"type":"VEC3"
		},
		{
			"bufferView":7,
			"componentType":5123,
			"count":24,
			"type":"SCALAR"
		},
		{
			"bufferView":8,
			"componentType":5126,
			"count":88,
			"max":[
				-0.0023240859154611826,
				0.7063171863555908,
				0.015586771070957184
			],
			"min":[
				-0.7576605081558228,
				-0.8026230335235596,
				-0.0004651198978535831
			],
			"type":"VEC3"
		},
		{
			"bufferView":9,
			"componentType":5126,
			"count":88,
			"type":"VEC2"
		},
		{
			"bufferView":10,
			"componentType":5126,
			"count":88,
			"type":"VEC3"
		},
		{
			"bufferView":11,
			"componentType":5126,
			"count":16,
			"max":[
				-0.07095560431480408,
				0.6192874908447266,
				0.015547472983598709
			],
			"min":[
				-0.689029335975647,
				-0.6907275915145874,
				-0.0004258220724295825
			],
			"type":"VEC3"
		},
		{
			"bufferView":12,
			"componentType":5126,
			"count":16,
			"type":"VEC2"
		},
		{
			"bufferView":13,
			"componentType":5126,
			"count":16,
			"type":"VEC3"
		},
		{
			"bufferView":14,
			"componentType":5126,
			"count":86,
			"max":[
				0.7441966533660889,
				1.6094396114349365,
				0.5001723766326904
			],
			"min":[
				-0.7656320333480835,
				-0.0003892183303833008,
				0.0003885924816131592
			],
			"type":"VEC3"
		},
		{
			"bufferView":15,
			"componentType":5126,
			"count":86,
			"type":"VEC2"
		},
		{
			"bufferView":16,
			"componentType":5126,
			"count":86,
			"type":"VEC3"
		},
		{
			"bufferView":17,
			"componentType":5123,
			"count":132,
			"type":"SCALAR"
		},
		{
			"bufferView":18,
			"componentType":5126,
			"count":84,
			"max":[
				0.7441966533660889,
				1.6094396114349365,
				0.5001723766326904
			],
			"min":[
				-0.7656320333480835,
				-0.0003892183303833008,
				0.0003885924816131592
			],
			"type":"VEC3"
		},
		{
			"bufferView":19,
			"componentType":5126,
			"count":84,
			"type":"VEC2"
		},
		{
			"bufferView":20,
			"componentType":5126,
			"count":84,
			"type":"VEC3"
		},
		{
			"bufferView":21,
			"componentType":5123,
			"count":156,
			"type":"SCALAR"
		},
		{
			"bufferView":22,
			"componentType":5126,
			"count":31,
			"max":[
				1.25
			],
			"min":[
				0
			],
			"type":"SCALAR"
		},
		{
			"bufferView":23,
			"componentType":5126,
			"count":31,
			"type":"VEC3"
		},
		{
			"bufferView":24,
			"componentType":5126,
			"count":31,
			"type":"VEC4"
		},
		{
			"bufferView":25,
			"componentType":5126,
			"count":31,
			"type":"VEC3"
		},
		{
			"bufferView":26,
			"componentType":5126,
			"count":31,
			"type":"VEC3"
		},
		{
			"bufferView":27,
			"componentType":5126,
			"count":31,
			"type":"VEC4"
		},
		{
			"bufferView":28,
			"componentType":5126,
			"count":31,
			"type":"VEC3"
		},
		{
			"bufferView":29,
			"componentType":5126,
			"count":31,
			"type":"VEC4"
		},
		{
			"bufferView":30,
			"componentType":5126,
			"count":31,
			"type":"VEC3"
		},
		{
			"bufferView":31,
			"componentType":5126,
			"count":31,
			"type":"VEC3"
		}
	],
	"bufferViews":[
		{
			"buffer":0,
			"byteLength":1056,
			"byteOffset":0,
			"target":34962
		},
		{
			"buffer":0,
			"byteLength":704,
			"byteOffset":1056,
			"target":34962
		},
		{
			"buffer":0,
			"byteLength":1056,
			"byteOffset":1760,
			"target":34962
		},
		{
			"buffer":0,
			"byteLength":504,
			"byteOffset":2816,
			"target":34963
		},
		{
			"buffer":0,
			"byteLength":192,
			"byteOffset":3320,
			"target":34962
		},
		{
			"buffer":0,
			"byteLength":128,
			"byteOffset":3512,
			"target":34962
		},
		{
			"buffer":0,
			"byteLength":192,
			"byteOffset":3640,
			"target":34962
		},
		{
			"buffer":0,
			"byteLength":48,
			"byteOffset":3832,
			"target":34963
		},
		{
			"buffer":0,
			"byteLength":1056,
			"byteOffset":3880,
			"target":34962
		},
		{
			"buffer":0,
			"byteLength":704,
			"byteOffset":4936,
			"target":34962
		},
		{
			"buffer":0,
			"byteLength":1056,
			"byteOffset":5640,
			"target":34962
		},
		{
			"buffer":0,
			"byteLength":192,
			"byteOffset":6696,
			"target":34962
		},
		{
			"buffer":0,
			"byteLength":128,
			"byteOffset":6888,
			"target":34962
		},
		{
			"buffer":0,
			"byteLength":192,
			"byteOffset":7016,
			"target":34962
		},
		{
			"buffer":0,
			"byteLength":1032,
			"byteOffset":7208,
			"target":34962
		},
		{
			"buffer":0,
			"byteLength":688,
			"byteOffset":8240,
			"target":34962
		},
		{
			"buffer":0,
			"byteLength":1032,
			"byteOffset":8928,
			"target":34962
		},
		{
			"buffer":0,
			"byteLength":264,
			"byteOffset":9960,
			"target":34963
		},
		{
			"buffer":0,
			"byteLength":1008,
			"byteOffset":10224,
			"target":34962
		},
		{
			"buffer":0,
			"byteLength":672,
			"byteOffset":11232,
			"target":34962
		},
		{
			"buffer":0,
			"byteLength":1008,
			"byteOffset":11904,
			"target":34962
		},
		{
			"buffer":0,
			"byteLength":312,
			"byteOffset":12912,
			"target":34963
		},
		{
			"buffer":0,
			"byteLength":124,
			"byteOffset":13224
		},
		{
			"buffer":0,
			"byteLength":372,
			"byteOffset":13348
		},
		{
			"buffer":0,
			"byteLength":496,
			"byteOffset":13720
		},
		{
			"buffer":0,
			"byteLength":372,
			"byteOffset":14216
		},
		{
			"buffer":0,
			"byteLength":372,
			"byteOffset":14588
		},
		{
			"buffer":0,
			"byteLength":496,
			"byteOffset":14960
		},
		{
			"buffer":0,
			"byteLength":372,
			"byteOffset":15456
		},
		{
			"buffer":0,
			"byteLength":496,
			"byteOffset":15828
		},
		{
			"buffer":0,
			"byteLength":372,
			"byteOffset":16324
		},
		{
			"buffer":0,
			"byteLength":372,
			"byteOffset":16696
		}
	],
	"buffers":[
		{
			"byteLength":17068,
			"uri":"data:application/octet-stream;base64,"
		}
	]
}
